<?xml version="1.0" encoding="UTF-8"?>
<?xml-stylesheet href="https://cdnjs.cloudflare.com/ajax/libs/font-awesome/6.6.0/css/all.min.css" type="text/css"?>
<svg aria-roledescription="gitGraph" role="graphics-document document" viewBox="-131.88541412353516 -35.03333282470703 989.8854370117188 573.6092529296875" style="max-width: 100%;" xmlns="http://www.w3.org/2000/svg" width="100%" id="graph-div" height="100%" xmlns:xlink="http://www.w3.org/1999/xlink"><style>#graph-div{font-family:"trebuchet ms",verdana,arial,sans-serif;font-size:16px;fill:#ccc;}#graph-div .error-icon{fill:#a44141;}#graph-div .error-text{fill:#ddd;stroke:#ddd;}#graph-div .edge-thickness-normal{stroke-width:1px;}#graph-div .edge-thickness-thick{stroke-width:3.5px;}#graph-div .edge-pattern-solid{stroke-dasharray:0;}#graph-div .edge-thickness-invisible{stroke-width:0;fill:none;}#graph-div .edge-pattern-dashed{stroke-dasharray:3;}#graph-div .edge-pattern-dotted{stroke-dasharray:2;}#graph-div .marker{fill:lightgrey;stroke:lightgrey;}#graph-div .marker.cross{stroke:lightgrey;}#graph-div svg{font-family:"trebuchet ms",verdana,arial,sans-serif;font-size:16px;}#graph-div p{margin:0;}#graph-div .commit-id,#graph-div .commit-msg,#graph-div .branch-label{fill:lightgrey;color:lightgrey;font-family:'trebuchet ms',verdana,arial,sans-serif;font-family:var(--mermaid-font-family);}#graph-div .branch-label0{fill:#2c2c2c;}#graph-div .commit0{stroke:hsl(180, 1.5873015873%, 48.3529411765%);fill:hsl(180, 1.5873015873%, 48.3529411765%);}#graph-div .commit-highlight0{stroke:rgb(133.6571428571, 129.7428571428, 129.7428571428);fill:rgb(133.6571428571, 129.7428571428, 129.7428571428);}#graph-div .label0{fill:hsl(180, 1.5873015873%, 48.3529411765%);}#graph-div .arrow0{stroke:hsl(180, 1.5873015873%, 48.3529411765%);}#graph-div .branch-label1{fill:lightgrey;}#graph-div .commit1{stroke:hsl(321.6393442623, 65.5913978495%, 38.2352941176%);fill:hsl(321.6393442623, 65.5913978495%, 38.2352941176%);}#graph-div .commit-highlight1{stroke:rgb(93.5483870969, 221.4516129033, 139.677419355);fill:rgb(93.5483870969, 221.4516129033, 139.677419355);}#graph-div .label1{fill:hsl(321.6393442623, 65.5913978495%, 38.2352941176%);}#graph-div .arrow1{stroke:hsl(321.6393442623, 65.5913978495%, 38.2352941176%);}#graph-div .branch-label2{fill:lightgrey;}#graph-div .commit2{stroke:hsl(194.4, 16.5562913907%, 49.6078431373%);fill:hsl(194.4, 16.5562913907%, 49.6078431373%);}#graph-div .commit-highlight2{stroke:rgb(149.4437086091, 117.6092715231, 107.5562913906);fill:rgb(149.4437086091, 117.6092715231, 107.5562913906);}#graph-div .label2{fill:hsl(194.4, 16.5562913907%, 49.6078431373%);}#graph-div .arrow2{stroke:hsl(194.4, 16.5562913907%, 49.6078431373%);}#graph-div .branch-label3{fill:#2c2c2c;}#graph-div .commit3{stroke:hsl(23.0769230769, 49.0566037736%, 40.7843137255%);fill:hsl(23.0769230769, 49.0566037736%, 40.7843137255%);}#graph-div .commit-highlight3{stroke:rgb(99.9811320754, 162.7735849057, 202.0188679245);fill:rgb(99.9811320754, 162.7735849057, 202.0188679245);}#graph-div .label3{fill:hsl(23.0769230769, 49.0566037736%, 40.7843137255%);}#graph-div .arrow3{stroke:hsl(23.0769230769, 49.0566037736%, 40.7843137255%);}#graph-div .branch-label4{fill:lightgrey;}#graph-div .commit4{stroke:hsl(0, 83.3333333333%, 43.5294117647%);fill:hsl(0, 83.3333333333%, 43.5294117647%);}#graph-div .commit-highlight4{stroke:rgb(51.5000000001, 236.5, 236.5);fill:rgb(51.5000000001, 236.5, 236.5);}#graph-div .label4{fill:hsl(0, 83.3333333333%, 43.5294117647%);}#graph-div .arrow4{stroke:hsl(0, 83.3333333333%, 43.5294117647%);}#graph-div .branch-label5{fill:lightgrey;}#graph-div .commit5{stroke:hsl(289.1666666667, 100%, 24.1176470588%);fill:hsl(289.1666666667, 100%, 24.1176470588%);}#graph-div .commit-highlight5{stroke:rgb(154.2083333334, 255, 132.0000000001);fill:rgb(154.2083333334, 255, 132.0000000001);}#graph-div .label5{fill:hsl(289.1666666667, 100%, 24.1176470588%);}#graph-div .arrow5{stroke:hsl(289.1666666667, 100%, 24.1176470588%);}#graph-div .branch-label6{fill:lightgrey;}#graph-div .commit6{stroke:hsl(35.1315789474, 98.7012987013%, 40.1960784314%);fill:hsl(35.1315789474, 98.7012987013%, 40.1960784314%);}#graph-div .commit-highlight6{stroke:rgb(51.331168831, 135.1948051946, 253.6688311688);fill:rgb(51.331168831, 135.1948051946, 253.6688311688);}#graph-div .label6{fill:hsl(35.1315789474, 98.7012987013%, 40.1960784314%);}#graph-div .arrow6{stroke:hsl(35.1315789474, 98.7012987013%, 40.1960784314%);}#graph-div .branch-label7{fill:lightgrey;}#graph-div .commit7{stroke:hsl(106.1538461538, 84.4155844156%, 35.0980392157%);fill:hsl(106.1538461538, 84.4155844156%, 35.0980392157%);}#graph-div .commit-highlight7{stroke:rgb(206.1818181817, 89.948051948, 241.051948052);fill:rgb(206.1818181817, 89.948051948, 241.051948052);}#graph-div .label7{fill:hsl(106.1538461538, 84.4155844156%, 35.0980392157%);}#graph-div .arrow7{stroke:hsl(106.1538461538, 84.4155844156%, 35.0980392157%);}#graph-div .branch{stroke-width:1;stroke:lightgrey;stroke-dasharray:2;}#graph-div .commit-label{font-size:10px;fill:rgb(183.8476190475, 181.5523809523, 181.5523809523);}#graph-div .commit-label-bkg{font-size:10px;fill:hsl(180, 1.5873015873%, 28.3529411765%);opacity:0.5;}#graph-div .tag-label{font-size:10px;fill:#e0dfdf;}#graph-div .tag-label-bkg{fill:#1f2020;stroke:#cccccc;}#graph-div .tag-hole{fill:#ccc;}#graph-div .commit-merge{stroke:#1f2020;fill:#1f2020;}#graph-div .commit-reverse{stroke:#1f2020;fill:#1f2020;stroke-width:3;}#graph-div .commit-highlight-inner{stroke:#1f2020;fill:#1f2020;}#graph-div .arrow{stroke-width:8;stroke-linecap:round;fill:none;}#graph-div .gitTitleText{text-anchor:middle;font-size:18px;fill:#ccc;}#graph-div :root{--mermaid-font-family:"trebuchet ms",verdana,arial,sans-serif;}</style><g></g><g class="commit-bullets"></g><g class="commit-labels"></g><g><line class="branch branch0" y2="0" x2="850" y1="0" x1="0"></line><rect transform="translate(-19, -9.166666984558105)" height="22.33333396911621" width="53" y="-1.1666669845581055" x="-69" ry="4" rx="4" class="branchLabelBkg label0"></rect><g class="branchLabel"><g transform="translate(-79, -10.166666984558105)" class="label branch-label0"><text><tspan class="row" x="0" dy="1em" xml:space="preserve">main</tspan></text></g></g><line class="branch branch1" y2="90" x2="850" y1="90" x1="0"></line><rect transform="translate(-19, 80.8333330154419)" height="22.33333396911621" width="88.88542175292969" y="-1.1666669845581055" x="-104.88542175292969" ry="4" rx="4" class="branchLabelBkg label1"></rect><g class="branchLabel"><g transform="translate(-114.88542175292969, 79.8333330154419)" class="label branch-label1"><text><tspan class="row" x="0" dy="1em" xml:space="preserve">iteration1</tspan></text></g></g><line class="branch branch2" y2="180" x2="850" y1="180" x1="0"></line><rect transform="translate(-19, 170.8333330154419)" height="22.33333396911621" width="88.88542175292969" y="-1.1666669845581055" x="-104.88542175292969" ry="4" rx="4" class="branchLabelBkg label2"></rect><g class="branchLabel"><g transform="translate(-114.88542175292969, 169.8333330154419)" class="label branch-label2"><text><tspan class="row" x="0" dy="1em" xml:space="preserve">iteration2</tspan></text></g></g><line class="branch branch3" y2="270" x2="850" y1="270" x1="0"></line><rect transform="translate(-19, 260.8333330154419)" height="22.33333396911621" width="88.88542175292969" y="-1.1666669845581055" x="-104.88542175292969" ry="4" rx="4" class="branchLabelBkg label3"></rect><g class="branchLabel"><g transform="translate(-114.88542175292969, 259.8333330154419)" class="label branch-label3"><text><tspan class="row" x="0" dy="1em" xml:space="preserve">iteration3</tspan></text></g></g><line class="branch branch4" y2="360" x2="850" y1="360" x1="0"></line><rect transform="translate(-19, 350.8333330154419)" height="22.33333396911621" width="88.88542175292969" y="-1.1666669845581055" x="-104.88542175292969" ry="4" rx="4" class="branchLabelBkg label4"></rect><g class="branchLabel"><g transform="translate(-114.88542175292969, 349.8333330154419)" class="label branch-label4"><text><tspan class="row" x="0" dy="1em" xml:space="preserve">iteration4</tspan></text></g></g><line class="branch branch5" y2="450" x2="850" y1="450" x1="0"></line><rect transform="translate(-19, 440.8333330154419)" height="22.33333396911621" width="88.88542175292969" y="-1.1666669845581055" x="-104.88542175292969" ry="4" rx="4" class="branchLabelBkg label5"></rect><g class="branchLabel"><g transform="translate(-114.88542175292969, 439.8333330154419)" class="label branch-label5"><text><tspan class="row" x="0" dy="1em" xml:space="preserve">iteration5</tspan></text></g></g></g><g class="commit-arrows"><path class="arrow arrow1" d="M 10 0 L 10 70 A 20 20, 0, 0, 0, 30 90 L 60 90"></path><path class="arrow arrow1" d="M 60 90 L 110 90"></path><path class="arrow arrow0" d="M 10 0 L 160 0"></path><path class="arrow arrow1" d="M 110 90 L 140 90 A 20 20, 0, 0, 0, 160 70 L 160 0"></path><path class="arrow arrow2" d="M 160 0 L 160 160 A 20 20, 0, 0, 0, 180 180 L 210 180"></path><path class="arrow arrow2" d="M 210 180 L 260 180"></path><path class="arrow arrow0" d="M 160 0 L 310 0"></path><path class="arrow arrow2" d="M 260 180 L 290 180 A 20 20, 0, 0, 0, 310 160 L 310 0"></path><path class="arrow arrow3" d="M 310 0 L 310 250 A 20 20, 0, 0, 0, 330 270 L 360 270"></path><path class="arrow arrow3" d="M 360 270 L 410 270"></path><path class="arrow arrow0" d="M 310 0 L 460 0"></path><path class="arrow arrow3" d="M 410 270 L 440 270 A 20 20, 0, 0, 0, 460 250 L 460 0"></path><path class="arrow arrow4" d="M 460 0 L 460 340 A 20 20, 0, 0, 0, 480 360 L 510 360"></path><path class="arrow arrow4" d="M 510 360 L 560 360"></path><path class="arrow arrow0" d="M 460 0 L 610 0"></path><path class="arrow arrow4" d="M 560 360 L 590 360 A 20 20, 0, 0, 0, 610 340 L 610 0"></path><path class="arrow arrow5" d="M 610 0 L 610 430 A 20 20, 0, 0, 0, 630 450 L 660 450"></path><path class="arrow arrow5" d="M 660 450 L 710 450"></path><path class="arrow arrow0" d="M 610 0 L 760 0"></path><path class="arrow arrow5" d="M 710 450 L 740 450 A 20 20, 0, 0, 0, 760 430 L 760 0"></path><path class="arrow arrow0" d="M 760 0 L 810 0"></path></g><g class="commit-bullets"><circle class="commit Initial Array [5, 2, 8, 12, 1, 6] commit0" r="10" cy="0" cx="10"></circle><circle class="commit Find Minimum: 1 commit1" r="10" cy="90" cx="60"></circle><circle class="commit Swap 5 and 1 commit1" r="10" cy="90" cx="110"></circle><circle class="commit 3-d91c3f6 commit0" r="9" cy="0" cx="160"></circle><circle class="commit commit-merge 3-d91c3f6 commit0" r="6" cy="0" cx="160"></circle><circle class="commit Find Minimum: 2 commit2" r="10" cy="180" cx="210"></circle><circle class="commit 2 already in place commit2" r="10" cy="180" cx="260"></circle><circle class="commit 6-814b96b commit0" r="9" cy="0" cx="310"></circle><circle class="commit commit-merge 6-814b96b commit0" r="6" cy="0" cx="310"></circle><circle class="commit Find Minimum: 5 commit3" r="10" cy="270" cx="360"></circle><circle class="commit Swap 8 and 5 commit3" r="10" cy="270" cx="410"></circle><circle class="commit 9-72cba6f commit0" r="9" cy="0" cx="460"></circle><circle class="commit commit-merge 9-72cba6f commit0" r="6" cy="0" cx="460"></circle><circle class="commit Find Minimum: 6 commit4" r="10" cy="360" cx="510"></circle><circle class="commit Swap 12 and 6 commit4" r="10" cy="360" cx="560"></circle><circle class="commit 12-69b641d commit0" r="9" cy="0" cx="610"></circle><circle class="commit commit-merge 12-69b641d commit0" r="6" cy="0" cx="610"></circle><circle class="commit Find Minimum: 8 commit5" r="10" cy="450" cx="660"></circle><circle class="commit 8 already in place commit5" r="10" cy="450" cx="710"></circle><circle class="commit 15-cfca385 commit0" r="9" cy="0" cx="760"></circle><circle class="commit commit-merge 15-cfca385 commit0" r="6" cy="0" cx="760"></circle><circle class="commit Sorted Array [1, 2, 5, 6, 8, 12] commit0" r="10" cy="0" cx="810"></circle></g><g class="commit-labels"><g transform="translate(-61.81163452148437, 55.19462036132813) rotate(-45, 0, 0)"><rect height="15.666666984558105" width="136.92535400390625" y="13.5" x="-58.462677001953125" class="commit-label-bkg"></rect><text class="commit-label" y="25" x="-56.462677001953125">Initial Array [5, 2, 8, 12, 1, 6]</text></g><g transform="translate(-39.57569702148437, 35.29930786132813) rotate(-45, 50, 90)"><rect height="15.666666984558105" width="78.40972900390625" y="103.5" x="20.795135498046875" class="commit-label-bkg"></rect><text class="commit-label" y="115" x="22.795135498046875">Find Minimum: 1</text></g><g transform="translate(-33.68107719421387, 30.025174331665042) rotate(-45, 100, 90)"><rect height="15.666666984558105" width="62.8975715637207" y="103.5" x="78.55121421813965" class="commit-label-bkg"></rect><text class="commit-label" y="115" x="80.55121421813965">Swap 5 and 1</text></g><polygon points="109.2586784362793,-17.2  
      109.2586784362793,-21.2
      117.2586784362793,-27.033333492279052
      202.7413215637207,-27.033333492279052
      202.7413215637207,-11.366666507720947
      117.2586784362793,-11.366666507720947" class="tag-label-bkg"></polygon><circle class="tag-hole" r="1.5" cx="113.2586784362793" cy="-19.2"></circle><text x="121.2586784362793" class="tag-label" y="-16">[1, 2, 8, 12, 5, 6]</text><g transform="translate(-39.57569702148437, 35.29930786132813) rotate(-45, 200, 180)"><rect height="15.666666984558105" width="78.40972900390625" y="193.5" x="170.79513549804688" class="commit-label-bkg"></rect><text class="commit-label" y="205" x="172.79513549804688">Find Minimum: 2</text></g><g transform="translate(-41.76824066162109, 37.26105743408203) rotate(-45, 250, 180)"><rect height="15.666666984558105" width="84.17958068847656" y="193.5" x="217.91020965576172" class="commit-label-bkg"></rect><text class="commit-label" y="205" x="219.91020965576172">2 already in place</text></g><polygon points="259.2586784362793,-17.2  
      259.2586784362793,-21.2
      267.2586784362793,-27.033333492279052
      352.7413215637207,-27.033333492279052
      352.7413215637207,-11.366666507720947
      267.2586784362793,-11.366666507720947" class="tag-label-bkg"></polygon><circle class="tag-hole" r="1.5" cx="263.2586784362793" cy="-19.2"></circle><text x="271.2586784362793" class="tag-label" y="-16">[1, 2, 8, 12, 5, 6]</text><g transform="translate(-39.57569702148437, 35.29930786132813) rotate(-45, 350, 270)"><rect height="15.666666984558105" width="78.40972900390625" y="283.5" x="320.7951354980469" class="commit-label-bkg"></rect><text class="commit-label" y="295" x="322.7951354980469">Find Minimum: 5</text></g><g transform="translate(-33.68107719421387, 30.025174331665042) rotate(-45, 400, 270)"><rect height="15.666666984558105" width="62.8975715637207" y="283.5" x="378.55121421813965" class="commit-label-bkg"></rect><text class="commit-label" y="295" x="380.55121421813965">Swap 8 and 5</text></g><polygon points="409.2586784362793,-17.2  
      409.2586784362793,-21.2
      417.2586784362793,-27.033333492279052
      502.7413215637207,-27.033333492279052
      502.7413215637207,-11.366666507720947
      417.2586784362793,-11.366666507720947" class="tag-label-bkg"></polygon><circle class="tag-hole" r="1.5" cx="413.2586784362793" cy="-19.2"></circle><text x="421.2586784362793" class="tag-label" y="-16">[1, 2, 5, 12, 8, 6]</text><g transform="translate(-39.57569702148437, 35.29930786132813) rotate(-45, 500, 360)"><rect height="15.666666984558105" width="78.40972900390625" y="373.5" x="470.7951354980469" class="commit-label-bkg"></rect><text class="commit-label" y="385" x="472.7951354980469">Find Minimum: 6</text></g><g transform="translate(-35.673437500000006, 31.807812499999997) rotate(-45, 550, 360)"><rect height="15.666666984558105" width="68.140625" y="373.5" x="525.9296875" class="commit-label-bkg"></rect><text class="commit-label" y="385" x="527.9296875">Swap 12 and 6</text></g><polygon points="559.2586784362793,-17.2  
      559.2586784362793,-21.2
      567.2586784362793,-27.033333492279052
      652.7413215637207,-27.033333492279052
      652.7413215637207,-11.366666507720947
      567.2586784362793,-11.366666507720947" class="tag-label-bkg"></polygon><circle class="tag-hole" r="1.5" cx="563.2586784362793" cy="-19.2"></circle><text x="571.2586784362793" class="tag-label" y="-16">[1, 2, 5, 6, 8, 12]</text><g transform="translate(-39.691971130371094, 35.40334259033203) rotate(-45, 650, 450)"><rect height="15.666666984558105" width="78.71571350097656" y="463.5" x="620.6421432495117" class="commit-label-bkg"></rect><text class="commit-label" y="475" x="622.6421432495117">Find Minimum: 8</text></g><g transform="translate(-41.76824066162109, 37.26105743408203) rotate(-45, 700, 450)"><rect height="15.666666984558105" width="84.17958068847656" y="463.5" x="667.9102096557617" class="commit-label-bkg"></rect><text class="commit-label" y="475" x="669.9102096557617">8 already in place</text></g><polygon points="709.2586784362793,-17.2  
      709.2586784362793,-21.2
      717.2586784362793,-27.033333492279052
      802.7413215637207,-27.033333492279052
      802.7413215637207,-11.366666507720947
      717.2586784362793,-11.366666507720947" class="tag-label-bkg"></polygon><circle class="tag-hole" r="1.5" cx="713.2586784362793" cy="-19.2"></circle><text x="721.2586784362793" class="tag-label" y="-16">[1, 2, 5, 6, 8, 12]</text><g transform="translate(-62.926562499999996, 56.1921875) rotate(-45, 800, 0)"><rect height="15.666666984558105" width="139.859375" y="13.5" x="740.0703125" class="commit-label-bkg"></rect><text class="commit-label" y="25" x="742.0703125">Sorted Array [1, 2, 5, 6, 8, 12]</text></g></g></svg>