<?xml version="1.0" encoding="UTF-8"?>
<?xml-stylesheet href="https://cdnjs.cloudflare.com/ajax/libs/font-awesome/6.6.0/css/all.min.css" type="text/css"?>
<svg aria-roledescription="er" role="graphics-document document" viewBox="0 0 540 595" style="max-width: 100%;" xmlns="http://www.w3.org/2000/svg" width="100%" id="graph-div" height="100%" xmlns:xlink="http://www.w3.org/1999/xlink"><style>#graph-div{font-family:"trebuchet ms",verdana,arial,sans-serif;font-size:16px;fill:#ccc;}#graph-div .error-icon{fill:#a44141;}#graph-div .error-text{fill:#ddd;stroke:#ddd;}#graph-div .edge-thickness-normal{stroke-width:1px;}#graph-div .edge-thickness-thick{stroke-width:3.5px;}#graph-div .edge-pattern-solid{stroke-dasharray:0;}#graph-div .edge-thickness-invisible{stroke-width:0;fill:none;}#graph-div .edge-pattern-dashed{stroke-dasharray:3;}#graph-div .edge-pattern-dotted{stroke-dasharray:2;}#graph-div .marker{fill:lightgrey;stroke:lightgrey;}#graph-div .marker.cross{stroke:lightgrey;}#graph-div svg{font-family:"trebuchet ms",verdana,arial,sans-serif;font-size:16px;}#graph-div p{margin:0;}#graph-div .entityBox{fill:#1f2020;stroke:#ccc;}#graph-div .attributeBoxOdd{fill:hsl(0, 0%, 32%);stroke:#ccc;}#graph-div .attributeBoxEven{fill:hsl(0, 0%, 22%);stroke:#ccc;}#graph-div .relationshipLabelBox{fill:hsl(20, 1.5873015873%, 12.3529411765%);opacity:0.7;background-color:hsl(20, 1.5873015873%, 12.3529411765%);}#graph-div .relationshipLabelBox rect{opacity:0.5;}#graph-div .relationshipLine{stroke:lightgrey;}#graph-div .entityTitleText{text-anchor:middle;font-size:18px;fill:#ccc;}#graph-div #MD_PARENT_START{fill:#f5f5f5!important;stroke:lightgrey!important;stroke-width:1;}#graph-div #MD_PARENT_END{fill:#f5f5f5!important;stroke:lightgrey!important;stroke-width:1;}#graph-div :root{--mermaid-font-family:"trebuchet ms",verdana,arial,sans-serif;}</style><g></g><defs><marker orient="auto" markerHeight="240" markerWidth="190" refY="7" refX="0" id="MD_PARENT_START"><path d="M 18,7 L9,13 L1,7 L9,1 Z"></path></marker></defs><defs><marker orient="auto" markerHeight="28" markerWidth="20" refY="7" refX="19" id="MD_PARENT_END"><path d="M 18,7 L9,13 L1,7 L9,1 Z"></path></marker></defs><defs><marker orient="auto" markerHeight="18" markerWidth="18" refY="9" refX="0" id="ONLY_ONE_START"><path d="M9,0 L9,18 M15,0 L15,18" fill="none" stroke="gray"></path></marker></defs><defs><marker orient="auto" markerHeight="18" markerWidth="18" refY="9" refX="18" id="ONLY_ONE_END"><path d="M3,0 L3,18 M9,0 L9,18" fill="none" stroke="gray"></path></marker></defs><defs><marker orient="auto" markerHeight="18" markerWidth="30" refY="9" refX="0" id="ZERO_OR_ONE_START"><circle r="6" cy="9" cx="21" fill="white" stroke="gray"></circle><path d="M9,0 L9,18" fill="none" stroke="gray"></path></marker></defs><defs><marker orient="auto" markerHeight="18" markerWidth="30" refY="9" refX="30" id="ZERO_OR_ONE_END"><circle r="6" cy="9" cx="9" fill="white" stroke="gray"></circle><path d="M21,0 L21,18" fill="none" stroke="gray"></path></marker></defs><defs><marker orient="auto" markerHeight="36" markerWidth="45" refY="18" refX="18" id="ONE_OR_MORE_START"><path d="M0,18 Q 18,0 36,18 Q 18,36 0,18 M42,9 L42,27" fill="none" stroke="gray"></path></marker></defs><defs><marker orient="auto" markerHeight="36" markerWidth="45" refY="18" refX="27" id="ONE_OR_MORE_END"><path d="M3,9 L3,27 M9,18 Q27,0 45,18 Q27,36 9,18" fill="none" stroke="gray"></path></marker></defs><defs><marker orient="auto" markerHeight="36" markerWidth="57" refY="18" refX="18" id="ZERO_OR_MORE_START"><circle r="6" cy="18" cx="48" fill="white" stroke="gray"></circle><path d="M0,18 Q18,0 36,18 Q18,36 0,18" fill="none" stroke="gray"></path></marker></defs><defs><marker orient="auto" markerHeight="36" markerWidth="57" refY="18" refX="39" id="ZERO_OR_MORE_END"><circle r="6" cy="18" cx="9" fill="white" stroke="gray"></circle><path d="M21,18 Q39,0 57,18 Q39,36 21,18" fill="none" stroke="gray"></path></marker></defs><path style="stroke: gray; fill: none;" marker-start="url(#ONLY_ONE_START)" marker-end="url(#ZERO_OR_MORE_END)" d="M70,262.222L70,270.556C70,278.889,70,295.556,95,314.34C120,333.125,170,354.028,195,364.479L220,374.931" class="er relationshipLine"></path><path style="stroke: gray; fill: none;" marker-start="url(#ONLY_ONE_START)" marker-end="url(#ONE_OR_MORE_END)" d="M329.801,87.222L319.834,95.556C309.867,103.889,289.934,120.556,279.967,137.87C270,155.185,270,173.148,270,182.13L270,191.111" class="er relationshipLine"></path><path style="stroke: gray; fill: none;" marker-start="url(#ONLY_ONE_START)" marker-end="url(#ONE_OR_MORE_END)" d="M410.199,87.222L420.166,95.556C430.133,103.889,450.066,120.556,460.033,137.87C470,155.185,470,173.148,470,182.13L470,191.111" class="er relationshipLine"></path><path style="stroke: gray; fill: none;" marker-start="url(#ONLY_ONE_START)" marker-end="url(#ONLY_ONE_END)" d="M270,429.444L270,437.778C270,446.111,270,462.778,270,479.444C270,496.111,270,512.778,270,521.111L270,529.444" class="er relationshipLine"></path><path style="stroke: gray; fill: none;" marker-start="url(#ONE_OR_MORE_START)" marker-end="url(#ONLY_ONE_END)" d="M270,258.333L270,267.315C270,276.296,270,294.259,270,311.574C270,328.889,270,345.556,270,353.889L270,362.222" class="er relationshipLine"></path><path style="stroke: gray; fill: none;" marker-start="url(#ONE_OR_MORE_START)" marker-end="url(#ONLY_ONE_END)" d="M470,258.333L470,267.315C470,276.296,470,294.259,445,313.692C420,333.125,370,354.028,345,364.479L320,374.931" class="er relationshipLine"></path><g transform="translate(20,187.22222137451172 )" id="entity-ARRAY-ae24a817-6584-5ce0-b259-90cbb54662b8"><rect height="75" width="100" y="0" x="0" class="er entityBox"></rect><text style="dominant-baseline: middle; text-anchor: middle; font-size: 12px;" transform="translate(50,37.5)" y="0" x="0" id="text-entity-ARRAY-ae24a817-6584-5ce0-b259-90cbb54662b8" class="er entityLabel">ARRAY</text></g><g transform="translate(220,362.2222213745117 )" id="entity-ELEMENT-6a40bb53-8bb8-5bc3-88f4-12bfbc66f081"><rect height="67.22222328186035" width="100" y="0" x="0" class="er entityBox"></rect><text style="dominant-baseline: middle; text-anchor: middle; font-size: 12px;" transform="translate(50,11.94444465637207)" y="0" x="0" id="text-entity-ELEMENT-6a40bb53-8bb8-5bc3-88f4-12bfbc66f081" class="er entityLabel">ELEMENT</text><rect height="21.666666984558105" width="43.824559688568115" y="23.88888931274414" x="0" class="er attributeBoxOdd"></rect><text style="dominant-baseline: middle; font-size: 10.2px;" transform="translate(5,34.72222280502319)" y="0" x="0" id="text-entity-ELEMENT-6a40bb53-8bb8-5bc3-88f4-12bfbc66f081-attr-1-type" class="er entityLabel">int</text><rect height="21.666666984558105" width="56.175440311431885" y="23.88888931274414" x="43.824559688568115" class="er attributeBoxOdd"></rect><text style="dominant-baseline: middle; font-size: 10.2px;" transform="translate(48.824559688568115,34.72222280502319)" y="0" x="0" id="text-entity-ELEMENT-6a40bb53-8bb8-5bc3-88f4-12bfbc66f081-attr-1-name" class="er entityLabel">value</text><rect height="21.666666984558105" width="43.824559688568115" y="45.555556297302246" x="0" class="er attributeBoxEven"></rect><text style="dominant-baseline: middle; font-size: 10.2px;" transform="translate(5,56.3888897895813)" y="0" x="0" id="text-entity-ELEMENT-6a40bb53-8bb8-5bc3-88f4-12bfbc66f081-attr-2-type" class="er entityLabel">int</text><rect height="21.666666984558105" width="56.175440311431885" y="45.555556297302246" x="43.824559688568115" class="er attributeBoxEven"></rect><text style="dominant-baseline: middle; font-size: 10.2px;" transform="translate(48.824559688568115,56.3888897895813)" y="0" x="0" id="text-entity-ELEMENT-6a40bb53-8bb8-5bc3-88f4-12bfbc66f081-attr-2-name" class="er entityLabel">index</text></g><g transform="translate(308.5576400756836,20 )" id="entity-ALGORITHM-46d48257-9922-5253-a7ba-027d19c83c3d"><rect height="67.22222328186035" width="122.88471603393555" y="0" x="0" class="er entityBox"></rect><text style="dominant-baseline: middle; text-anchor: middle; font-size: 12px;" transform="translate(61.44235801696777,11.94444465637207)" y="0" x="0" id="text-entity-ALGORITHM-46d48257-9922-5253-a7ba-027d19c83c3d" class="er entityLabel">ALGORITHM</text><rect height="21.666666984558105" width="35.72916793823242" y="23.88888931274414" x="0" class="er attributeBoxOdd"></rect><text style="dominant-baseline: middle; font-size: 10.2px;" transform="translate(5,34.72222280502319)" y="0" x="0" id="text-entity-ALGORITHM-46d48257-9922-5253-a7ba-027d19c83c3d-attr-1-type" class="er entityLabel">string</text><rect height="21.666666984558105" width="87.15554809570312" y="23.88888931274414" x="35.72916793823242" class="er attributeBoxOdd"></rect><text style="dominant-baseline: middle; font-size: 10.2px;" transform="translate(40.72916793823242,34.72222280502319)" y="0" x="0" id="text-entity-ALGORITHM-46d48257-9922-5253-a7ba-027d19c83c3d-attr-1-name" class="er entityLabel">name</text><rect height="21.666666984558105" width="35.72916793823242" y="45.555556297302246" x="0" class="er attributeBoxEven"></rect><text style="dominant-baseline: middle; font-size: 10.2px;" transform="translate(5,56.3888897895813)" y="0" x="0" id="text-entity-ALGORITHM-46d48257-9922-5253-a7ba-027d19c83c3d-attr-2-type" class="er entityLabel">int</text><rect height="21.666666984558105" width="87.15554809570312" y="45.555556297302246" x="35.72916793823242" class="er attributeBoxEven"></rect><text style="dominant-baseline: middle; font-size: 10.2px;" transform="translate(40.72916793823242,56.3888897895813)" y="0" x="0" id="text-entity-ALGORITHM-46d48257-9922-5253-a7ba-027d19c83c3d-attr-2-name" class="er entityLabel">time_complexity</text></g><g transform="translate(220,191.11111068725586 )" id="entity-COMPARISON-3232af1f-29ae-5823-bf74-1c2a0717128f"><rect height="67.22222328186035" width="100" y="0" x="0" class="er entityBox"></rect><text style="dominant-baseline: middle; text-anchor: middle; font-size: 12px;" transform="translate(50,11.94444465637207)" y="0" x="0" id="text-entity-COMPARISON-3232af1f-29ae-5823-bf74-1c2a0717128f" class="er entityLabel">COMPARISON</text><rect height="21.666666984558105" width="25.424302577972412" y="23.88888931274414" x="0" class="er attributeBoxOdd"></rect><text style="dominant-baseline: middle; font-size: 10.2px;" transform="translate(5,34.72222280502319)" y="0" x="0" id="text-entity-COMPARISON-3232af1f-29ae-5823-bf74-1c2a0717128f-attr-1-type" class="er entityLabel">int</text><rect height="21.666666984558105" width="74.57569742202759" y="23.88888931274414" x="25.424302577972412" class="er attributeBoxOdd"></rect><text style="dominant-baseline: middle; font-size: 10.2px;" transform="translate(30.424302577972412,34.72222280502319)" y="0" x="0" id="text-entity-COMPARISON-3232af1f-29ae-5823-bf74-1c2a0717128f-attr-1-name" class="er entityLabel">first_index</text><rect height="21.666666984558105" width="25.424302577972412" y="45.555556297302246" x="0" class="er attributeBoxEven"></rect><text style="dominant-baseline: middle; font-size: 10.2px;" transform="translate(5,56.3888897895813)" y="0" x="0" id="text-entity-COMPARISON-3232af1f-29ae-5823-bf74-1c2a0717128f-attr-2-type" class="er entityLabel">int</text><rect height="21.666666984558105" width="74.57569742202759" y="45.555556297302246" x="25.424302577972412" class="er attributeBoxEven"></rect><text style="dominant-baseline: middle; font-size: 10.2px;" transform="translate(30.424302577972412,56.3888897895813)" y="0" x="0" id="text-entity-COMPARISON-3232af1f-29ae-5823-bf74-1c2a0717128f-attr-2-name" class="er entityLabel">second_index</text></g><g transform="translate(420,191.11111068725586 )" id="entity-SWAP-4ea14c00-f4c1-583c-b9a0-ab5367898abc"><rect height="67.22222328186035" width="100" y="0" x="0" class="er entityBox"></rect><text style="dominant-baseline: middle; text-anchor: middle; font-size: 12px;" transform="translate(50,11.94444465637207)" y="0" x="0" id="text-entity-SWAP-4ea14c00-f4c1-583c-b9a0-ab5367898abc" class="er entityLabel">SWAP</text><rect height="21.666666984558105" width="25.424302577972412" y="23.88888931274414" x="0" class="er attributeBoxOdd"></rect><text style="dominant-baseline: middle; font-size: 10.2px;" transform="translate(5,34.72222280502319)" y="0" x="0" id="text-entity-SWAP-4ea14c00-f4c1-583c-b9a0-ab5367898abc-attr-1-type" class="er entityLabel">int</text><rect height="21.666666984558105" width="74.57569742202759" y="23.88888931274414" x="25.424302577972412" class="er attributeBoxOdd"></rect><text style="dominant-baseline: middle; font-size: 10.2px;" transform="translate(30.424302577972412,34.72222280502319)" y="0" x="0" id="text-entity-SWAP-4ea14c00-f4c1-583c-b9a0-ab5367898abc-attr-1-name" class="er entityLabel">first_index</text><rect height="21.666666984558105" width="25.424302577972412" y="45.555556297302246" x="0" class="er attributeBoxEven"></rect><text style="dominant-baseline: middle; font-size: 10.2px;" transform="translate(5,56.3888897895813)" y="0" x="0" id="text-entity-SWAP-4ea14c00-f4c1-583c-b9a0-ab5367898abc-attr-2-type" class="er entityLabel">int</text><rect height="21.666666984558105" width="74.57569742202759" y="45.555556297302246" x="25.424302577972412" class="er attributeBoxEven"></rect><text style="dominant-baseline: middle; font-size: 10.2px;" transform="translate(30.424302577972412,56.3888897895813)" y="0" x="0" id="text-entity-SWAP-4ea14c00-f4c1-583c-b9a0-ab5367898abc-attr-2-name" class="er entityLabel">second_index</text></g><g transform="translate(220,529.4444427490234 )" id="entity-POSITION-adf88214-f9d0-5aef-9945-144f4723c262"><rect height="45.555556297302246" width="100" y="0" x="0" class="er entityBox"></rect><text style="dominant-baseline: middle; text-anchor: middle; font-size: 12px;" transform="translate(50,11.94444465637207)" y="0" x="0" id="text-entity-POSITION-adf88214-f9d0-5aef-9945-144f4723c262" class="er entityLabel">POSITION</text><rect height="21.666666984558105" width="43.824559688568115" y="23.88888931274414" x="0" class="er attributeBoxOdd"></rect><text style="dominant-baseline: middle; font-size: 10.2px;" transform="translate(5,34.72222280502319)" y="0" x="0" id="text-entity-POSITION-adf88214-f9d0-5aef-9945-144f4723c262-attr-1-type" class="er entityLabel">int</text><rect height="21.666666984558105" width="56.175440311431885" y="23.88888931274414" x="43.824559688568115" class="er attributeBoxOdd"></rect><text style="dominant-baseline: middle; font-size: 10.2px;" transform="translate(48.824559688568115,34.72222280502319)" y="0" x="0" id="text-entity-POSITION-adf88214-f9d0-5aef-9945-144f4723c262-attr-1-name" class="er entityLabel">index</text></g><rect height="13.88888931274414" width="44.9599723815918" y="327.4778881072998" x="106.04459571838379" class="er relationshipLabelBox"></rect><text style="text-anchor: middle; dominant-baseline: middle; font-size: 12px;" y="334.4223327636719" x="128.5245819091797" id="rel1" class="er relationshipLabel">contains</text><rect height="13.88888931274414" width="48.37443161010742" y="124.01580619812012" x="260.27768898010254" class="er relationshipLabelBox"></rect><text style="text-anchor: middle; dominant-baseline: middle; font-size: 12px;" y="130.9602508544922" x="284.46490478515625" id="rel2" class="er relationshipLabel">performs</text><rect height="13.88888931274414" width="47.88241958618164" y="124.01582145690918" x="431.59388542175293" class="er relationshipLabelBox"></rect><text style="text-anchor: middle; dominant-baseline: middle; font-size: 12px;" y="130.96026611328125" x="455.53509521484375" id="rel3" class="er relationshipLabel">executes</text><rect height="13.88888931274414" width="17.855361938476562" y="472.49952507019043" x="261.0723190307617" class="er relationshipLabelBox"></rect><text style="text-anchor: middle; dominant-baseline: middle; font-size: 12px;" y="479.4439697265625" x="270" id="rel4" class="er relationshipLabel">has</text><rect height="13.88888931274414" width="43.238121032714844" y="303.33305168151855" x="248.38093948364258" class="er relationshipLabelBox"></rect><text style="text-anchor: middle; dominant-baseline: middle; font-size: 12px;" y="310.2774963378906" x="270" id="rel5" class="er relationshipLabel">involves</text><rect height="13.88888931274414" width="37.40488815307617" y="326.57804679870605" x="394.15366554260254" class="er relationshipLabelBox"></rect><text style="text-anchor: middle; dominant-baseline: middle; font-size: 12px;" y="333.5224914550781" x="412.8561096191406" id="rel6" class="er relationshipLabel">affects</text></svg>